# xmcd
#
# Track frame offsets:
#	150
#	14031
#	24566
#	36629
#	49919
#	65588
#	77610
#	88933
#	100320
#	111758
#	125216
#	136000
#	146941
#	166811
#	178906
#
# Disc length: 2534 seconds
#
# Revision: 1
# Processed by: cddbd v1.4PL0 Copyright (c) Steve Scherf et al.
# Submitted via: dBpowerAMP V4.0
#
DISCID=e009e40f
DTITLE=Glen Campbell - Original Gold CD 2
DYEAR=1900
DGENRE=country
TTITLE0=Wichita Lineman
TTITLE1=Help Me Make It Through The Night
TTITLE2=Galveston
TTITLE3=Gentle On My Mind
TTITLE4=He Ain't Heavy, He's My Brother
TTITLE5=I Can't Help It
TTITLE6=You've Still Got A Place In My Heart
TTITLE7=Dream Baby (How Long Must I Dream)
TTITLE8=Hey Little One
TTITLE9=Oklahoma Sunday Morning
TTITLE10=It's A Sin When You Love Somebody
TTITLE11=Try A Little Kindness
TTITLE12=Amazing Grace
TTITLE13=Manhattan Kansas
TTITLE14=True Grit
EXTD=
EXTT0=
EXTT1=
EXTT2=
EXTT3=
EXTT4=
EXTT5=
EXTT6=
EXTT7=
EXTT8=
EXTT9=
EXTT10=
EXTT11=
EXTT12=
EXTT13=
EXTT14=
PLAYORDER=
